<?xml version="1.0" standalone="no"?>
<!DOCTYPE svg PUBLIC "-//W3C//DTD SVG 20010904//EN"
 "http://www.w3.org/TR/2001/REC-SVG-20010904/DTD/svg10.dtd">
<svg version="1.0" xmlns="http://www.w3.org/2000/svg"
 width="2000.000000pt" height="1251.000000pt" viewBox="0 0 2000.000000 1251.000000"
 preserveAspectRatio="xMidYMid meet">

<g transform="translate(0.000000,1251.000000) scale(0.100000,-0.100000)"
fill="#000000" stroke="none">
<path d="M5980 12295 c-14 -8 -33 -14 -43 -15 -10 0 -35 -9 -57 -20 -22 -11
-49 -20 -61 -20 -15 0 -56 -34 -125 -104 -97 -99 -106 -106 -171 -125 -37 -11
-90 -23 -118 -27 -51 -7 -213 -83 -235 -109 -7 -8 -27 -15 -45 -15 -24 0 -48
-12 -88 -45 -31 -25 -62 -45 -70 -45 -44 0 -172 -229 -236 -421 -20 -61 -27
-70 -80 -107 -63 -45 -116 -61 -279 -87 -57 -9 -123 -23 -146 -31 -45 -15
-146 -97 -146 -118 0 -7 -9 -21 -21 -32 -12 -10 -34 -45 -50 -76 -20 -39 -42
-66 -68 -82 -51 -32 -98 -89 -141 -169 -28 -52 -47 -73 -96 -107 -102 -69
-138 -113 -182 -225 l-40 -100 2 -146 c2 -121 5 -151 20 -173 13 -21 16 -38
11 -68 -9 -53 -49 -78 -124 -78 -53 0 -57 -2 -104 -52 -55 -58 -107 -142 -107
-173 -1 -53 -81 -125 -140 -125 -27 0 -43 -7 -63 -28 -23 -24 -26 -34 -26
-102 1 -49 6 -83 16 -98 28 -45 43 -116 33 -153 -6 -18 -10 -49 -10 -67 0 -25
-12 -45 -54 -91 -49 -53 -64 -81 -80 -151 -3 -14 -28 -49 -56 -79 -49 -52 -51
-53 -93 -47 -131 21 -124 22 -162 -19 -43 -45 -75 -105 -75 -140 0 -18 13 -38
40 -62 22 -20 40 -44 40 -53 0 -9 7 -25 15 -36 20 -27 19 -48 -9 -102 -28 -54
-70 -97 -106 -107 -51 -14 -98 -56 -129 -115 -17 -32 -31 -69 -31 -82 0 -18
-18 -41 -64 -82 -35 -32 -77 -66 -93 -75 -29 -18 -101 -99 -121 -136 -6 -12
-23 -63 -37 -115 -27 -95 -48 -131 -115 -202 -19 -21 -49 -52 -66 -70 -59 -63
-159 -145 -184 -150 -46 -11 -141 -55 -164 -77 -12 -11 -27 -21 -33 -21 -6 0
-33 -15 -60 -34 -27 -18 -63 -37 -81 -41 -31 -6 -78 -32 -210 -112 -34 -21
-99 -73 -143 -116 -67 -64 -91 -80 -138 -93 -119 -35 -206 -74 -236 -108 -17
-19 -46 -41 -66 -49 -72 -30 -179 -153 -179 -204 0 -23 39 -113 60 -138 17
-21 49 -19 74 6 48 47 194 150 226 159 66 19 93 13 158 -36 57 -42 66 -45 100
-39 77 15 136 9 196 -18 94 -43 140 -35 265 49 36 24 71 44 76 44 6 0 29 -18
50 -41 42 -42 123 -89 156 -89 11 0 43 12 71 26 l51 26 86 -25 c47 -14 116
-29 152 -32 56 -5 71 -3 100 14 51 31 67 27 75 -16 10 -60 68 -107 89 -73 3 5
32 19 65 31 80 29 94 46 87 106 -7 59 25 178 50 187 9 4 39 -4 67 -18 28 -13
76 -26 107 -30 31 -3 81 -17 110 -31 30 -14 61 -25 70 -25 8 0 28 -14 45 -31
16 -17 51 -49 77 -70 56 -45 84 -48 179 -23 86 22 119 16 131 -21 5 -16 19
-40 31 -53 18 -20 27 -23 66 -18 161 21 167 21 205 -12 46 -41 103 -58 144
-44 17 6 46 8 64 5 38 -6 99 20 131 56 23 25 48 27 82 5 21 -14 31 -15 62 -6
29 9 50 8 96 -4 38 -10 76 -13 107 -9 45 6 48 5 63 -23 19 -37 81 -87 121 -96
17 -4 44 -18 60 -31 31 -23 91 -38 199 -50 36 -4 82 -19 118 -38 55 -28 62
-30 94 -18 32 12 38 11 58 -8 25 -24 46 -26 92 -9 29 10 37 9 74 -16 22 -15
46 -39 52 -54 7 -15 30 -46 51 -69 l40 -42 -13 -46 c-12 -43 -11 -47 10 -70
19 -20 33 -25 76 -25 34 0 56 -5 64 -15 7 -8 27 -15 45 -15 41 0 86 35 121 96
14 24 30 44 36 44 6 0 30 -13 55 -30 52 -36 53 -36 95 -10 41 25 72 17 110
-26 l29 -32 111 -1 c102 0 115 2 135 21 13 12 23 28 23 35 0 8 7 16 15 19 18
7 65 -21 65 -40 0 -20 31 -43 68 -50 23 -4 47 0 77 14 55 25 67 25 89 1 15
-16 32 -20 100 -20 58 0 89 4 102 14 11 8 41 15 70 15 34 0 56 5 64 15 9 11
23 14 44 10 25 -5 36 -1 54 18 26 27 51 26 78 -4 9 -10 23 -19 31 -19 7 0 13
-6 13 -13 0 -20 82 -94 112 -101 26 -6 27 -8 21 -51 -5 -39 -2 -49 18 -71 36
-39 123 -77 164 -72 28 3 40 -1 62 -24 19 -19 44 -32 85 -40 45 -9 58 -16 58
-30 0 -10 24 -36 57 -61 80 -59 113 -95 113 -123 0 -13 4 -32 9 -42 5 -9 18
-35 29 -58 12 -22 19 -50 16 -61 -3 -12 -1 -30 5 -41 8 -15 7 -23 -4 -32 -22
-19 -18 -58 9 -83 19 -18 21 -25 12 -40 -9 -16 -5 -24 28 -53 37 -32 38 -35
23 -52 -10 -10 -17 -24 -17 -30 0 -7 -4 -20 -9 -30 -23 -42 -41 -92 -41 -109
0 -11 11 -30 24 -42 19 -18 24 -32 22 -57 -2 -18 -8 -39 -13 -46 -19 -23 -25
-59 -13 -73 6 -8 9 -23 5 -34 -5 -16 9 -36 64 -92 73 -75 81 -89 57 -108 -20
-17 -26 -59 -15 -115 10 -52 5 -60 -55 -91 -58 -30 -46 -87 41 -188 37 -42 74
-77 83 -77 22 0 40 -20 40 -44 1 -12 14 -37 30 -56 17 -19 30 -46 30 -61 0
-25 26 -59 46 -59 11 0 74 -75 74 -87 0 -12 80 -88 107 -102 12 -6 30 -11 41
-11 36 0 54 -33 47 -84 -4 -26 -11 -49 -16 -52 -5 -3 -9 -16 -9 -29 0 -22 20
-43 83 -87 14 -10 27 -31 31 -50 7 -41 61 -108 85 -108 10 0 28 -11 41 -25 13
-14 30 -25 39 -25 11 0 8 -8 -11 -28 -39 -42 -46 -62 -47 -132 0 -65 0 -65
-47 -106 -43 -37 -46 -44 -41 -73 6 -28 2 -36 -23 -57 l-30 -26 2 -104 c1 -58
5 -107 9 -109 3 -3 4 -15 2 -28 -4 -19 6 -33 49 -70 51 -43 59 -46 138 -57
l85 -10 27 30 c33 36 88 41 137 13 26 -15 34 -16 51 -5 14 8 37 10 68 6 45 -6
50 -4 78 27 35 41 59 40 122 -2 45 -31 67 -36 77 -19 4 6 21 8 41 4 21 -4 40
-2 49 6 10 8 34 11 67 8 36 -4 59 -1 74 8 18 13 23 12 34 -1 7 -8 18 -15 24
-15 7 0 23 -11 36 -26 26 -27 53 -27 141 -2 31 9 42 7 85 -16 60 -32 65 -32
94 -1 37 39 80 58 98 42 35 -29 132 -131 132 -139 0 -4 -18 -24 -40 -44 -50
-45 -78 -126 -61 -176 9 -24 8 -35 -2 -47 -9 -11 -13 -41 -12 -93 2 -73 0 -79
-27 -104 -32 -31 -38 -85 -13 -118 8 -11 15 -28 15 -37 0 -10 11 -26 25 -37
14 -11 25 -27 25 -35 0 -17 51 -63 89 -81 22 -10 29 -5 92 64 38 41 71 87 75
103 7 32 38 55 88 67 29 6 41 3 70 -18 20 -14 36 -31 36 -37 0 -7 9 -20 20
-30 11 -10 20 -26 20 -35 0 -18 30 -50 47 -50 6 0 26 17 45 38 18 20 40 36 49
34 25 -5 69 37 70 66 0 16 3 21 6 12 3 -8 12 -23 20 -32 9 -10 15 -36 15 -60
-1 -32 8 -56 31 -93 54 -85 57 -90 63 -103 4 -7 -6 -26 -21 -42 -25 -26 -27
-33 -17 -54 6 -13 23 -32 37 -43 15 -10 43 -32 63 -49 67 -56 97 -69 127 -56
l27 12 -31 -37 c-17 -21 -31 -47 -31 -59 0 -23 29 -54 51 -54 8 0 46 32 84 71
39 39 97 91 130 117 33 25 81 65 108 88 33 30 53 41 67 37 37 -10 81 53 51 72
-12 7 5 59 25 76 16 13 19 70 4 85 -7 7 -4 16 10 29 11 10 20 24 20 32 0 59
102 162 360 366 226 178 386 280 512 327 31 11 62 28 69 36 26 32 394 254 420
254 8 0 30 15 49 34 98 97 139 132 216 183 46 30 86 59 89 64 4 5 30 16 58 24
66 19 127 68 127 101 0 13 6 24 13 24 18 0 47 32 47 53 0 8 -14 26 -30 39
l-30 24 43 36 c49 41 225 156 308 202 31 17 114 63 185 103 177 99 503 256
594 287 74 25 75 25 96 5 11 -10 25 -19 31 -19 16 0 73 68 73 88 1 23 24 52
41 52 11 0 14 -10 11 -40 -5 -45 17 -80 48 -80 9 0 25 -9 35 -20 10 -11 26
-20 35 -20 17 0 60 39 60 56 1 15 33 49 54 57 12 5 26 1 38 -10 16 -14 23 -15
38 -5 11 7 26 12 33 12 24 0 50 37 43 63 -4 18 1 30 20 48 17 16 23 30 20 45
-4 13 0 27 9 34 17 14 45 67 45 85 0 7 7 18 15 25 8 7 15 20 15 30 0 11 15 23
40 33 33 13 41 13 51 1 19 -23 53 -16 84 16 16 16 38 30 49 30 10 0 27 6 35
14 49 44 327 92 376 66 13 -7 34 -10 46 -7 38 10 108 -3 102 -20 -6 -16 24
-53 45 -53 8 0 27 11 43 24 36 30 99 29 133 -3 24 -23 60 -27 102 -11 25 10
31 7 66 -27 21 -20 38 -42 38 -48 0 -7 9 -20 20 -30 20 -18 22 -18 85 15 54
28 67 31 80 20 14 -12 12 -16 -21 -43 -33 -28 -36 -34 -31 -70 12 -86 93 -143
174 -120 21 6 68 18 105 27 37 9 74 19 82 22 11 4 16 1 16 -10 0 -9 16 -34 36
-56 30 -33 43 -40 74 -40 31 0 44 7 70 36 27 31 31 42 26 70 -4 18 -2 35 4 39
16 10 12 50 -8 68 -9 8 -29 18 -44 22 -39 10 -56 33 -20 27 19 -2 34 4 51 22
21 23 23 29 12 49 -9 17 -9 34 -1 71 l10 48 -51 59 c-39 45 -60 61 -92 69 -23
6 -52 15 -65 20 -63 27 -126 -14 -138 -89 -4 -23 -10 -44 -15 -46 -12 -8 -22
36 -10 48 29 29 -1 97 -43 97 -14 0 -17 8 -14 51 l3 51 48 4 c56 4 80 19 114
69 l25 37 24 -23 c23 -22 27 -22 87 -10 34 7 66 17 72 22 5 5 21 9 35 9 35 0
74 41 65 69 -4 12 -2 21 4 21 6 0 11 -6 11 -13 0 -21 34 -47 62 -47 14 0 33 9
44 21 18 20 18 22 1 51 -9 16 -17 37 -17 45 0 14 2 14 18 0 10 -10 28 -17 40
-17 16 0 22 -6 22 -23 0 -22 37 -67 54 -67 5 0 21 11 37 25 25 21 33 23 54 13
21 -9 29 -8 45 7 22 20 26 55 9 72 -6 6 -17 22 -23 35 -6 12 -21 27 -34 33
-29 13 -23 29 14 33 30 4 64 28 64 45 0 6 -10 21 -22 34 -16 18 -18 23 -6 23
8 0 23 9 32 19 10 11 24 17 32 14 8 -3 24 3 35 13 12 11 32 17 47 16 15 -2 36
3 46 11 15 11 27 12 48 5 16 -6 35 -7 43 -4 17 6 19 -2 5 -24 -7 -12 -12 -12
-29 4 -29 26 -71 8 -71 -29 0 -37 42 -55 70 -30 19 17 21 17 38 2 36 -33 92
-8 92 39 0 21 46 43 104 50 129 14 146 18 163 36 22 24 12 41 -47 83 -25 18
-56 52 -71 79 -14 27 -42 58 -60 70 -19 12 -50 38 -71 59 -20 20 -45 37 -57
37 -33 0 -27 42 9 68 16 12 33 22 38 22 14 0 47 42 66 83 10 21 18 64 18 95 1
31 9 90 19 129 11 40 19 75 19 78 0 3 6 5 14 5 23 0 76 50 76 71 0 23 29 39
74 39 19 0 38 5 41 10 3 6 16 8 29 4 17 -4 37 7 81 43 57 46 62 48 120 46 44
-1 65 3 80 16 11 9 31 24 45 33 24 15 26 15 57 -14 28 -27 36 -30 69 -24 20 4
50 20 65 35 26 27 31 28 68 18 33 -9 47 -8 81 8 23 11 51 18 63 18 11 -1 29 4
40 12 11 8 32 12 46 9 27 -6 81 26 81 47 0 6 13 22 30 36 31 25 39 60 19 80
-15 15 10 53 36 53 36 0 145 130 145 173 0 9 -11 29 -25 45 -14 17 -25 33 -25
37 0 16 -74 95 -90 95 -9 0 -20 3 -24 8 -4 4 -26 8 -49 9 -67 2 -120 10 -150
22 -16 6 -41 11 -56 11 -15 0 -31 4 -36 9 -6 5 -27 14 -47 21 -36 11 -40 10
-75 -19 -21 -17 -43 -31 -49 -31 -6 0 -25 -7 -43 -16 -24 -12 -36 -13 -44 -5
-18 18 -44 13 -65 -13 -19 -24 -19 -24 -48 -7 -34 20 -120 36 -127 24 -3 -5
-23 -7 -44 -5 -38 4 -39 5 -35 38 3 27 -1 41 -19 60 -12 13 -27 24 -33 24 -14
1 -92 74 -106 99 -5 11 -10 29 -10 41 0 32 -35 94 -73 127 -25 22 -53 34 -101
43 -67 12 -67 12 -95 -14 -24 -23 -34 -26 -65 -21 -38 8 -92 -11 -116 -40 -7
-8 -27 -15 -45 -15 -21 0 -45 -9 -62 -24 -20 -17 -34 -21 -48 -15 -33 13 -127
9 -170 -7 -22 -9 -53 -19 -70 -23 -100 -26 -190 -83 -201 -127 -4 -14 -19 -25
-47 -34 -88 -26 -157 -70 -157 -100 0 -14 -13 -18 -59 -23 -36 -4 -83 -18
-117 -36 l-57 -29 -19 24 c-11 13 -24 24 -30 24 -5 0 -37 16 -69 35 -33 19
-68 35 -78 35 -22 0 -53 -33 -49 -53 2 -7 -11 -26 -29 -41 l-32 -27 -42 46
c-23 25 -49 45 -59 45 -10 0 -44 -20 -76 -45 -31 -25 -61 -45 -66 -45 -12 0
-10 28 2 35 14 9 2 75 -18 98 -16 18 -86 24 -96 8 -3 -4 -17 -6 -32 -3 -20 4
-34 -4 -65 -34 -43 -42 -49 -72 -19 -99 25 -22 25 -31 3 -39 -10 -3 -40 -22
-68 -41 -27 -19 -57 -35 -67 -35 -22 0 -55 -43 -63 -81 -6 -26 -2 -36 26 -65
38 -39 60 -42 120 -14 47 21 64 15 71 -25 2 -15 -3 -21 -22 -23 -41 -6 -90
-49 -90 -80 0 -20 -3 -23 -12 -14 -7 7 -34 12 -61 12 -40 0 -53 -5 -77 -29
-30 -29 -50 -25 -50 9 0 23 -32 50 -59 50 -12 0 -35 -12 -51 -28 -29 -28 -53
-45 -109 -74 -18 -9 -41 -23 -50 -31 -20 -18 -70 -27 -136 -27 -30 1 -58 -5
-70 -14 -29 -22 -33 -20 -41 18 -3 19 -15 42 -25 52 -16 15 -25 16 -58 5 -21
-6 -45 -9 -53 -6 -8 3 -28 -1 -44 -10 -16 -8 -36 -15 -44 -15 -9 0 -21 -5 -28
-12 -9 -9 -15 -9 -24 0 -17 17 -73 15 -88 -3 -8 -9 -21 -13 -36 -9 -13 3 -37
-1 -53 -9 -39 -19 -45 -10 -42 62 2 57 35 123 67 135 41 16 -9 96 -61 96 -12
0 -28 7 -35 15 -7 8 -27 15 -46 15 -18 0 -36 5 -39 10 -3 6 -17 10 -30 10 -13
0 -31 10 -39 22 -15 21 -15 23 6 31 14 5 31 3 44 -4 18 -9 27 -7 53 12 39 29
48 61 27 94 -9 13 -16 33 -16 43 0 11 -6 25 -14 31 -8 7 -12 21 -9 31 3 11 0
26 -6 34 -9 10 -8 16 4 26 36 30 0 109 -44 97 -12 -3 -33 5 -52 19 -18 13 -43
24 -55 24 -13 0 -25 4 -28 9 -3 4 -19 11 -36 14 -23 5 -30 12 -30 29 0 32 -76
103 -120 113 -19 4 -53 9 -75 11 -22 3 -52 10 -68 17 -27 11 -29 15 -24 58 6
49 -5 68 -45 82 -17 6 -53 73 -49 91 1 6 4 25 5 43 2 18 10 41 18 51 18 22 35
59 42 95 4 15 12 27 19 27 7 0 27 15 44 32 18 18 48 46 67 61 20 16 36 37 36
47 0 10 -29 45 -65 78 -39 35 -65 67 -65 79 0 12 -7 26 -15 33 -25 20 0 40 41
33 25 -4 40 -1 54 12 32 29 25 66 -20 115 -22 24 -43 54 -46 67 -4 13 -10 26
-15 29 -15 9 -10 34 11 61 27 35 26 45 -16 104 l-35 51 26 34 c14 18 39 46 55
61 26 26 29 35 32 105 l3 77 38 -6 c31 -5 42 -1 62 17 14 13 25 29 25 35 0 7
9 20 20 30 11 10 20 23 20 30 0 6 16 27 36 46 30 29 34 39 29 65 -4 23 0 35
15 49 25 22 26 62 3 95 -18 26 -19 56 -2 77 11 12 4 52 -17 99 -18 40 -30 50
-78 58 -21 4 -49 14 -62 23 -15 10 -33 13 -50 9 -37 -10 -84 35 -84 79 0 68
-75 87 -140 35 -40 -32 -100 -42 -100 -17 0 20 -43 57 -66 57 -11 0 -25 -5
-32 -12 -6 -6 -34 -11 -62 -9 -45 2 -55 -2 -98 -37 -71 -59 -115 -75 -203 -76
l-76 -1 2 33 c1 18 5 36 9 39 13 13 5 51 -14 68 -22 20 -61 98 -80 162 -7 24
-21 50 -31 59 -12 11 -16 25 -13 43 7 35 -19 59 -71 63 -39 3 -40 4 -45 48 -3
25 -9 50 -13 56 -3 6 2 19 13 29 27 25 25 39 -10 68 -16 14 -30 35 -30 46 0
11 -4 22 -9 25 -15 10 -21 97 -10 137 14 45 -2 79 -48 101 -14 7 -34 27 -43
43 -9 17 -33 38 -52 47 -47 23 -53 44 -27 102 11 26 19 62 18 80 -3 27 4 42
31 72 20 22 42 58 49 82 14 41 16 42 57 42 38 0 46 5 78 43 27 34 37 56 42 99
4 33 2 58 -3 61 -17 10 -80 149 -87 188 -10 55 -45 101 -86 111 -42 11 -99 38
-160 78 -25 15 -51 29 -57 29 -7 1 -13 9 -13 19 -1 43 -8 168 -11 177 -7 21
34 121 67 160 35 43 64 102 64 131 0 9 -11 29 -25 46 -14 16 -25 39 -25 52 0
30 -25 63 -63 82 -18 9 -48 31 -67 50 -19 18 -56 42 -81 53 -25 11 -54 29 -64
41 -10 11 -30 20 -45 20 -16 0 -37 11 -54 28 -24 26 -25 30 -11 42 27 22 16
50 -46 121 -58 65 -89 83 -104 59 -3 -5 -14 -10 -24 -10 -10 0 -24 -7 -31 -15
-7 -9 -29 -15 -51 -15 -21 0 -41 -4 -44 -10 -3 -5 -21 -10 -39 -10 -23 0 -41
-9 -64 -33 -18 -18 -32 -40 -32 -49 0 -19 -42 -29 -62 -14 -8 6 -18 21 -22 33
-4 13 -27 39 -52 59 -40 33 -48 36 -87 30 -23 -4 -82 -9 -132 -11 -202 -9
-201 -8 -236 -76 -23 -46 -24 -72 -4 -89 10 -8 12 -18 6 -29 -5 -9 -11 -33
-15 -53 -4 -21 -11 -38 -16 -38 -20 0 -50 41 -50 69 0 35 -77 111 -113 111
-32 0 -67 -40 -67 -77 0 -46 -27 -104 -45 -97 -9 4 -31 -8 -55 -30 -43 -39
-71 -44 -110 -21 -14 8 -31 17 -38 21 -23 12 -72 65 -87 95 -35 67 -108 129
-153 129 -22 0 -74 -52 -71 -71 2 -8 -1 -34 -5 -57 -7 -41 -6 -46 23 -76 50
-51 7 -67 -50 -18 -33 27 -73 33 -169 24 -14 -2 -49 0 -78 4 -43 5 -67 2 -134
-21 -77 -26 -85 -27 -148 -16 -83 15 -126 8 -187 -32 -53 -35 -108 -39 -189
-17 -27 8 -64 10 -96 6 -29 -4 -83 -10 -120 -14 -51 -5 -77 -14 -110 -37 -41
-29 -43 -34 -46 -85 -2 -39 -10 -61 -27 -82 -39 -46 -57 -132 -33 -156 6 -6
12 -35 13 -64 1 -29 5 -70 10 -90 4 -20 5 -48 1 -62 l-6 -25 -54 32 -55 32 2
180 c2 153 -1 188 -17 235 -33 98 -92 140 -195 140 -70 0 -88 -16 -120 -105
-60 -162 -130 -239 -209 -228 -32 4 -48 13 -67 39 -14 18 -25 41 -25 51 0 10
-20 59 -45 108 -38 76 -46 102 -51 170 -8 102 9 195 34 188 10 -2 33 6 52 19
28 19 36 31 38 62 3 32 -2 44 -29 72 -30 31 -38 34 -92 34 -45 0 -69 -6 -104
-26 -42 -26 -49 -27 -139 -20 -115 8 -140 17 -162 58 -47 89 -108 115 -228 99
-41 -6 -85 -18 -98 -26 -19 -13 -58 -15 -227 -13 -176 2 -209 0 -243 -15 -51
-23 -90 -22 -162 5 -43 15 -83 21 -151 22 -79 1 -95 4 -120 24 -15 12 -46 35
-67 50 -44 30 -38 29 -379 37 -200 4 -193 1 -288 91 -55 53 -150 104 -192 104
-12 -1 -33 -7 -47 -15z m289 -184 c30 -30 54 -34 236 -37 93 -2 209 -4 256 -6
92 -3 79 3 186 -83 20 -16 40 -20 108 -20 46 0 86 -3 90 -6 3 -4 -39 -40 -94
-80 -56 -40 -101 -76 -101 -80 0 -3 38 -122 84 -263 46 -141 81 -256 79 -256
-3 0 -104 72 -225 160 l-220 160 -32 -22 c-17 -13 -116 -84 -220 -160 -105
-76 -192 -136 -194 -134 -2 2 33 115 77 251 45 136 81 254 81 261 0 7 -100 85
-221 173 l-222 161 157 0 c140 0 158 -2 175 -19z m1908 -237 c37 -28 114 -43
218 -44 46 0 69 6 100 25 49 30 128 34 157 8 26 -24 24 -70 -4 -79 -13 -4 -31
-7 -41 -5 -10 1 -24 -3 -32 -9 -22 -18 -38 -135 -31 -229 5 -75 12 -97 51
-176 25 -49 45 -98 45 -107 0 -10 16 -40 36 -68 29 -41 41 -50 66 -50 16 0 38
-5 49 -10 16 -9 29 -4 76 32 64 49 104 108 149 223 l32 80 44 3 c49 4 111 -14
132 -37 7 -9 22 -41 32 -71 16 -46 19 -85 19 -240 l0 -185 50 -32 50 -33 -843
0 -842 0 0 508 c0 280 3 512 7 515 3 4 105 7 226 7 l220 0 34 -26z m4366 -48
c52 -61 56 -71 27 -86 -25 -13 -17 -34 32 -82 26 -27 47 -38 67 -38 20 0 36
-9 49 -25 11 -14 25 -25 31 -25 24 0 91 -41 107 -66 9 -14 33 -32 53 -40 40
-17 51 -29 51 -61 0 -12 12 -35 26 -53 26 -30 26 -31 10 -73 -9 -23 -30 -58
-48 -77 -33 -36 -81 -153 -73 -180 9 -32 15 -115 9 -132 -5 -17 -78 -18 -1715
-18 -1053 0 -1709 4 -1709 9 0 5 4 21 10 35 6 18 5 42 -6 82 -8 32 -12 70 -9
86 4 17 0 38 -10 56 -21 36 -8 93 34 146 24 30 28 42 24 78 -5 40 -3 44 29 63
18 11 62 23 98 26 36 4 84 10 107 14 27 5 60 3 88 -5 25 -7 71 -13 103 -14 47
-1 64 4 98 27 62 42 98 49 182 35 69 -11 76 -11 157 16 68 23 94 27 128 21 23
-4 58 -6 77 -5 104 9 126 5 159 -23 35 -29 61 -33 110 -16 40 14 39 35 -5 80
-34 35 -35 38 -24 78 6 23 8 45 6 50 -3 5 1 14 9 21 34 28 105 -29 140 -114 9
-21 25 -40 35 -43 11 -3 22 -13 25 -23 3 -10 18 -23 33 -29 15 -7 38 -18 52
-27 40 -24 109 -12 137 23 13 15 30 27 39 25 36 -7 73 49 83 128 4 30 11 46
22 48 25 5 79 -46 79 -73 0 -45 19 -74 61 -96 l42 -21 19 23 c10 13 21 41 24
61 4 21 12 46 20 55 11 15 9 21 -8 40 -21 22 -21 23 -3 63 10 22 23 41 29 41
6 1 29 3 51 5 22 3 78 6 125 7 47 2 101 7 122 11 30 7 42 4 67 -15 18 -13 34
-34 38 -47 9 -37 65 -74 100 -66 34 8 63 32 63 52 0 27 32 52 66 52 18 0 36 5
39 10 3 6 23 10 44 10 22 0 44 6 51 15 7 8 21 15 31 15 10 0 21 5 24 10 10 17
18 12 68 -44z m-7218 -48 c473 -503 666 -1170 530 -1835 -109 -531 -432 -1005
-890 -1306 -103 -67 -314 -173 -425 -212 -222 -79 -444 -116 -695 -116 -192 0
-327 16 -509 62 -185 46 -501 180 -514 217 -2 7 12 28 32 47 25 23 39 48 46
80 15 65 32 96 80 139 36 32 43 45 50 94 4 31 11 69 15 83 7 28 -16 122 -37
146 -16 20 -21 158 -5 171 7 5 34 12 62 15 32 3 55 12 65 25 9 11 25 22 36 26
18 6 54 75 54 106 0 23 54 110 93 153 32 34 39 37 88 37 35 0 65 7 84 19 27
16 32 16 44 3 12 -12 12 -15 0 -23 -11 -6 -11 -14 -1 -42 7 -18 12 -57 12 -85
l0 -52 43 -2 c119 -5 132 -12 147 -82 l11 -55 42 -3 42 -3 -3 -50 c-1 -27 -3
-61 -5 -75 -1 -19 2 -24 15 -22 9 1 23 -7 32 -20 28 -40 -1 -138 -42 -138 -22
0 -162 -122 -162 -141 0 -3 -17 -24 -37 -45 -29 -32 -33 -40 -19 -42 9 -2 23
1 30 7 15 12 57 -20 69 -53 7 -17 9 -18 26 -2 19 17 33 12 25 -9 -4 -8 8 -21
28 -31 18 -9 57 -42 86 -72 49 -50 52 -56 37 -71 -14 -17 -21 -51 -10 -51 4 0
19 7 34 15 28 14 31 22 45 103 3 13 13 35 23 49 42 60 51 79 46 103 l-4 25 18
-21 c10 -11 24 -19 31 -16 20 6 13 -18 -13 -44 -14 -14 -25 -27 -25 -30 0 -3
-12 -16 -27 -29 -16 -13 -25 -26 -21 -30 4 -4 24 9 45 29 21 20 41 36 44 36 3
0 14 19 23 43 10 23 22 49 27 57 5 8 12 22 15 31 3 9 23 26 44 38 47 26 60 60
65 168 3 43 5 88 6 101 1 18 5 21 20 17 13 -4 21 -1 26 11 11 29 152 114 190
114 25 0 42 9 66 33 26 25 42 32 75 33 23 1 42 -2 42 -7 0 -12 34 -11 46 1 8
8 19 8 38 0 39 -14 45 -13 55 13 5 13 23 30 41 37 17 7 29 18 27 24 -5 12 17
46 83 131 60 77 70 95 70 131 0 17 11 47 24 66 13 19 26 52 30 74 4 21 14 51
22 66 8 16 15 54 15 86 0 31 5 71 10 89 6 19 7 39 2 48 -6 10 -3 34 6 65 16
48 31 66 31 35 0 -8 5 -15 11 -15 20 0 99 87 99 109 0 14 37 58 104 126 73 74
111 121 131 162 25 54 27 65 23 158 -7 148 -33 185 -128 185 -42 0 -95 34
-180 115 -25 25 -73 55 -109 70 -58 24 -69 25 -109 15 -31 -8 -48 -8 -57 0 -7
6 -26 12 -41 14 -16 2 -53 13 -81 25 -33 13 -53 16 -53 10 0 -8 -5 -7 -15 1
-12 10 -15 10 -15 0 0 -8 -8 -10 -25 -6 -18 5 -25 2 -25 -9 0 -8 -9 -24 -20
-35 -11 -11 -20 -25 -20 -32 0 -6 -3 -9 -6 -5 -12 12 15 68 45 93 20 16 37 47
52 92 53 161 175 392 206 392 14 0 46 22 100 68 14 12 39 22 56 22 16 0 42 11
59 25 16 14 33 25 38 25 4 0 47 -42 95 -92z m7704 -1952 c7 -8 26 -18 42 -21
22 -5 29 -12 29 -30 0 -23 24 -43 72 -61 25 -9 28 -27 13 -76 -8 -28 -10 -50
-4 -59 5 -8 9 -26 9 -41 0 -15 5 -30 11 -34 6 -3 9 -16 7 -29 -4 -16 4 -28 28
-44 l32 -23 -20 -20 c-14 -14 -18 -26 -13 -41 4 -12 10 -40 14 -62 3 -23 15
-52 26 -66 17 -21 27 -25 58 -21 42 5 43 3 22 -38 -15 -28 -14 -30 4 -30 24 0
35 -15 51 -65 7 -22 21 -57 31 -78 11 -22 19 -45 19 -52 0 -7 12 -22 27 -33
25 -18 25 -21 12 -50 l-14 -32 -2897 0 -2898 0 0 510 0 510 2664 0 c2302 0
2665 -2 2675 -14z m-6275 -508 l83 -253 279 -5 279 -5 -75 -55 c-41 -31 -140
-103 -219 -160 -79 -57 -145 -109 -147 -115 -2 -5 34 -126 80 -267 46 -142 79
-255 72 -251 -6 4 -107 76 -224 161 -117 85 -218 151 -225 148 -7 -3 -106 -74
-222 -159 -115 -85 -211 -151 -212 -148 -2 3 35 122 81 263 l83 256 -226 164
-226 163 280 3 280 2 84 260 c47 143 86 258 89 255 2 -2 41 -118 86 -257z
m7272 -476 c1 -21 -2 -22 -88 -22 -67 0 -89 3 -85 13 2 8 24 12 60 12 32 0 61
5 69 13 19 19 43 10 44 -16z m244 -2 c0 -18 -6 -20 -52 -19 -46 0 -50 2 -30
11 12 6 22 15 22 20 0 4 14 8 30 8 23 0 30 -4 30 -20z m-25 -1070 c3 -11 11
-20 16 -20 17 0 9 -21 -16 -44 -25 -23 -26 -32 -5 -81 5 -11 16 -37 24 -57 8
-21 20 -38 26 -38 17 0 49 -42 50 -63 0 -16 -5 -18 -38 -12 -29 5 -42 2 -52
-9 -7 -9 -21 -16 -31 -16 -10 0 -21 -5 -24 -10 -10 -17 5 -49 26 -55 45 -15 0
-44 -72 -47 -37 -1 -49 -10 -30 -22 5 -3 40 -7 77 -8 56 -1 75 -6 102 -26 17
-13 32 -30 32 -38 0 -7 9 -16 20 -19 11 -3 20 -10 20 -15 0 -13 -42 -40 -63
-40 -11 0 -22 -11 -28 -29 -8 -22 -15 -28 -34 -25 -21 2 -26 -4 -35 -34 -5
-21 -10 -44 -10 -53 0 -9 -7 -20 -16 -23 -9 -3 -14 -11 -12 -18 3 -7 -7 -22
-20 -33 -18 -15 -23 -26 -16 -36 11 -18 6 -50 -13 -71 -13 -14 -12 -17 5 -22
11 -4 23 -13 26 -21 5 -13 -795 -15 -6487 -15 l-6492 0 35 24 c19 13 51 27 70
31 19 4 56 23 83 41 27 19 54 34 60 34 6 0 21 10 33 21 24 23 116 65 170 78
36 10 132 96 278 251 62 65 84 105 111 200 14 52 31 103 37 115 23 43 73 96
112 120 23 13 59 42 80 65 l40 40 5977 0 c5969 0 5978 0 5984 -20z m613 -2081
c1 -29 -2 -57 -8 -64 -7 -8 1 -23 25 -50 32 -34 37 -36 53 -23 27 23 52 29 74
17 16 -9 23 -7 35 10 17 24 63 29 63 6 0 -19 34 -19 50 0 7 8 18 15 26 15 7 0
25 5 41 11 15 6 44 12 63 14 19 1 42 5 50 9 24 10 41 -63 22 -93 -24 -35 -6
-36 59 -2 44 23 73 31 107 31 66 -2 117 9 139 29 10 9 29 22 43 29 56 27 95
53 118 77 26 29 58 34 48 9 -4 -10 1 -22 10 -29 9 -6 19 -27 21 -45 2 -19 5
-36 8 -38 8 -9 55 28 55 43 0 8 5 15 10 15 6 0 10 7 10 15 0 8 3 15 8 16 4 0
26 3 50 5 38 5 43 3 52 -20 18 -47 60 -25 60 31 l0 33 1626 0 1625 0 -7 -22
c-9 -31 -44 -53 -44 -28 0 16 -23 11 -49 -9 -14 -10 -30 -17 -37 -14 -7 2 -34
-5 -61 -17 -43 -19 -53 -20 -92 -9 -42 12 -45 11 -67 -15 -33 -37 -79 -53 -99
-33 -8 9 -15 25 -15 37 0 32 -26 35 -61 6 -17 -14 -36 -26 -44 -26 -7 0 -19
-10 -28 -22 -13 -20 -18 -22 -43 -13 -41 15 -89 -1 -153 -52 -42 -34 -57 -41
-71 -33 -13 7 -21 5 -30 -5 -7 -9 -26 -15 -44 -13 -47 2 -96 -27 -103 -63 -7
-35 -18 -44 -55 -41 -27 2 -55 -28 -44 -46 4 -7 -30 -147 -40 -164 -3 -4 -1
-15 4 -24 11 -19 -4 -107 -18 -112 -6 -2 -10 -12 -10 -23 0 -11 -8 -23 -17
-26 -26 -10 -77 -46 -88 -63 -33 -49 -19 -110 26 -110 22 0 77 -29 56 -30 -5
0 -1 -7 7 -16 9 -8 16 -20 16 -25 0 -5 -1992 -8 -5176 -7 l-5175 3 -21 40
c-36 70 -38 74 -38 95 0 37 -43 93 -90 118 -14 7 -38 24 -54 37 -26 21 -28 26
-18 53 9 26 8 31 -12 40 -14 6 -28 6 -39 1 -26 -15 -96 8 -129 42 -25 25 -35
28 -66 23 -29 -4 -49 1 -92 23 -61 32 -71 54 -46 103 14 29 13 31 -7 45 -12 7
-35 17 -52 21 -16 3 -42 18 -57 32 -25 23 -26 27 -13 46 21 30 18 53 -10 82
-30 30 -48 24 -35 -12 13 -33 -16 -46 -39 -18 -9 10 -31 24 -48 31 -31 10 -34
9 -53 -17 -17 -24 -25 -28 -53 -23 -23 3 -37 0 -46 -11 -9 -11 -30 -16 -63
-16 -27 0 -59 -7 -71 -15 -28 -18 -165 -17 -175 1 -12 22 -53 32 -86 20 -17
-6 -33 -14 -36 -18 -13 -17 -90 -12 -90 6 0 19 -67 76 -90 76 -40 0 -69 -18
-72 -47 l-3 -28 -109 0 -109 0 -17 30 c-24 43 -87 55 -138 25 -21 -13 -38 -18
-40 -12 -6 19 -91 54 -115 48 -13 -3 -35 -28 -55 -61 -18 -30 -42 -59 -52 -65
-27 -14 -56 -12 -70 5 -8 10 -31 15 -66 15 -29 0 -55 4 -58 9 -3 5 2 30 10 55
l16 47 -44 42 c-25 23 -48 54 -53 67 -4 14 -21 37 -38 52 l-32 27 4845 1 4846
0 2 -51z m3174 -1262 c15 -12 15 -14 -4 -26 -26 -16 -55 3 -37 25 14 17 19 17
41 1z m-286 -198 c19 -21 19 -21 -8 -8 -15 6 -25 16 -22 20 7 12 8 12 30 -12z
m15 -92 c-10 -9 -11 -8 -5 6 3 10 9 15 12 12 3 -3 0 -11 -7 -18z m-1861 -454
c-55 -9 -206 -55 -220 -68 -8 -7 -32 -16 -53 -19 -28 -5 -40 -14 -47 -32 -5
-13 -16 -24 -24 -24 -10 0 -13 6 -10 15 10 24 -44 18 -106 -13 -45 -22 -55
-31 -53 -49 2 -13 -1 -23 -6 -23 -6 0 -13 -10 -16 -22 -15 -51 -31 -78 -45
-78 -9 0 -21 -5 -28 -12 -14 -14 -16 -52 -3 -44 22 14 17 -24 -5 -45 -20 -19
-24 -30 -20 -53 4 -16 3 -26 -1 -23 -3 4 -17 0 -30 -8 -21 -14 -23 -14 -23 0
0 9 -9 15 -25 15 -37 0 -95 -27 -95 -43 0 -8 -6 -17 -14 -20 -8 -3 -16 -16
-18 -28 -2 -12 -9 -24 -16 -27 -9 -3 -13 3 -10 19 3 22 0 24 -34 21 -36 -3
-38 -2 -38 28 0 18 6 33 15 36 8 4 15 10 15 15 0 13 -56 39 -82 39 -26 -1 -58
-22 -58 -38 0 -5 -7 -13 -16 -16 -10 -4 -14 -14 -11 -26 3 -12 -3 -30 -14 -43
l-18 -22 -1 23 c0 30 -30 29 -128 -4 -120 -40 -512 -235 -732 -363 -8 -5 -43
-25 -78 -45 l-63 -36 -2650 0 c-2356 0 -2653 2 -2679 15 -30 16 -37 33 -21 50
5 6 13 37 19 70 9 52 8 61 -5 70 -9 6 -25 18 -35 28 -10 9 -28 17 -40 17 -28
1 -67 21 -66 35 0 6 -10 15 -23 22 -13 7 -24 16 -24 20 -2 24 -18 53 -29 53
-7 0 -25 18 -40 40 -16 25 -31 37 -40 34 -11 -4 -14 2 -14 26 1 18 -4 35 -11
40 -7 4 -11 16 -9 26 2 12 -3 19 -14 19 -27 0 -32 13 -12 32 17 17 17 18 -3
21 -25 4 -40 32 -18 32 18 0 20 16 4 26 -6 3 -14 1 -18 -5 -15 -23 -66 -1 -91
39 -13 21 -27 37 -31 34 -9 -5 -44 48 -41 64 2 6 -2 12 -8 12 -6 0 -10 8 -8
18 4 20 35 41 84 57 14 5 16 15 10 59 -3 29 -3 56 1 59 3 4 1793 6 3977 6
2184 -1 3960 -4 3946 -6z m1050 -12 c13 -25 13 -81 0 -81 -5 0 -10 -6 -10 -14
0 -16 -54 -41 -69 -31 -6 3 -11 1 -11 -4 0 -6 -5 -11 -11 -11 -5 0 -8 4 -4 9
3 5 -4 12 -15 16 -14 4 -37 -3 -67 -21 -42 -24 -47 -25 -58 -10 -7 9 -22 16
-34 16 -14 0 -21 6 -21 20 0 13 -7 20 -20 20 -14 0 -20 7 -20 21 0 23 -12 23
-117 3 -26 -5 -33 -3 -33 10 0 19 -46 40 -68 31 -9 -3 -19 0 -23 7 -6 9 -13 9
-33 0 -14 -6 -26 -8 -26 -3 0 12 -174 33 -205 25 -15 -4 -25 -2 -25 5 0 8 122
11 430 11 414 0 430 -1 440 -19z m351 3 c15 -14 16 -21 4 -70 -11 -47 -10 -57
2 -69 16 -17 14 -18 -42 -19 -22 -1 -41 -5 -42 -9 -1 -4 -9 -15 -18 -23 -18
-19 -11 -34 16 -34 21 0 27 -20 7 -21 -7 0 -2 -5 12 -11 24 -11 33 -13 73 -17
21 -1 23 -31 2 -31 -18 0 -19 -9 -5 -46 25 -63 -56 -103 -99 -48 -11 15 -18
30 -15 35 3 5 2 19 -1 30 -6 17 -9 19 -16 8 -7 -12 -9 -12 -9 0 0 10 -9 12
-37 6 -21 -3 -45 -8 -53 -9 -8 -2 -28 -8 -43 -15 -16 -6 -40 -11 -53 -11 -14
0 -34 -5 -46 -11 -31 -16 -83 -2 -103 28 -36 55 -28 72 83 167 65 57 102 95
102 108 0 11 8 33 17 49 l17 29 115 0 c90 0 118 -3 132 -16z m-1017 -63 c3 -5
-1 -14 -9 -21 -12 -10 -18 -10 -30 0 -18 15 -11 30 15 30 10 0 21 -4 24 -9z
m406 -122 c0 -18 -2 -20 -15 -9 -13 11 -13 15 -3 21 18 12 18 12 18 -12z
m-3124 -1100 c8 -14 -11 -33 -25 -25 -11 7 -4 36 9 36 5 0 12 -5 16 -11z
m-1171 -788 c-119 -65 -234 -143 -390 -266 -300 -236 -376 -314 -409 -417 -3
-10 -15 -18 -26 -18 -17 0 -20 -4 -15 -22 4 -13 11 -27 16 -32 14 -15 11 -52
-5 -66 -23 -18 -40 -80 -27 -93 18 -18 13 -29 -10 -22 -15 5 -32 -2 -59 -24
l-39 -31 -253 0 -253 1 28 20 c15 11 27 28 27 38 0 9 5 22 10 27 7 7 2 15 -15
24 -14 7 -25 17 -25 22 0 6 -15 33 -34 61 -29 45 -34 59 -31 104 2 44 -1 53
-16 58 -11 4 -19 16 -19 29 0 12 -11 33 -25 46 -21 19 -25 21 -25 7 0 -9 -6
-17 -14 -17 -16 0 -26 -21 -26 -55 0 -27 -26 -41 -34 -18 -5 11 -17 2 -49 -38
-34 -43 -43 -49 -46 -34 -2 11 2 21 8 23 24 8 10 32 -19 32 -18 0 -30 5 -30
13 0 8 -15 28 -34 44 -40 37 -96 68 -96 53 0 -5 -9 -10 -20 -10 -11 0 -39 -10
-64 -21 -35 -18 -46 -29 -55 -60 -7 -22 -22 -50 -34 -63 -12 -13 -35 -40 -51
-60 l-29 -36 -31 20 c-19 11 -33 30 -36 47 -3 16 -14 32 -27 38 -13 5 -24 22
-28 42 -3 18 -10 33 -15 33 -6 0 -10 12 -10 26 0 26 20 54 39 54 13 0 25 45
16 59 -3 6 -2 11 3 11 9 0 7 47 -3 95 -3 13 6 29 28 48 31 26 31 28 10 33 -29
8 -34 36 -17 95 11 37 24 57 52 76 36 26 79 90 68 100 -3 3 -15 6 -28 6 -13 0
-33 12 -46 28 l-24 29 1154 0 1153 0 -70 -39z"/>
<path d="M17730 3760 c-28 -28 -25 -54 9 -92 28 -31 30 -32 56 -18 15 8 32 25
38 38 9 19 6 27 -23 57 -39 40 -52 43 -80 15z"/>
<path d="M17452 3637 c-18 -18 -32 -38 -32 -44 0 -6 12 -26 27 -43 25 -30 29
-31 72 -25 49 7 91 37 91 65 0 18 -30 50 -47 50 -6 0 -16 7 -23 15 -20 24 -54
17 -88 -18z m68 -17 c0 -5 11 -12 25 -16 36 -9 26 -27 -21 -37 -31 -6 -41 -4
-51 9 -11 15 -10 21 4 36 17 19 43 24 43 8z"/>
<path d="M16097 3502 c-22 -24 -21 -45 1 -65 24 -22 45 -21 65 1 22 24 21 45
-1 65 -24 22 -45 21 -65 -1z m49 -23 c10 -17 -13 -36 -27 -22 -12 12 -4 33 11
33 5 0 12 -5 16 -11z"/>
<path d="M13669 2399 c-16 -16 -19 -27 -14 -52 14 -63 56 -85 89 -48 20 23 14
74 -12 104 -20 22 -37 22 -63 -4z"/>
</g>
</svg>
